<?xml version="1.0" encoding="UTF-8" standalone="no"?><svg xmlns="http://www.w3.org/2000/svg" xmlns:xlink="http://www.w3.org/1999/xlink" contentScriptType="application/ecmascript" contentStyleType="text/css" height="328px" preserveAspectRatio="none" style="width:313px;height:328px;background:#FFFFFF;" version="1.1" viewBox="0 0 313 328" width="313px" zoomAndPan="magnify"><defs><filter height="300%" id="f18x82e3hvuno6" width="300%" x="-1" y="-1"><feGaussianBlur result="blurOut" stdDeviation="2.0"/><feColorMatrix in="blurOut" result="blurOut2" type="matrix" values="0 0 0 0 0 0 0 0 0 0 0 0 0 0 0 0 0 0 .4 0"/><feOffset dx="4.0" dy="4.0" in="blurOut2" result="blurOut3"/><feBlend in="SourceGraphic" in2="blurOut3" mode="normal"/></filter></defs><g><text fill="#000000" font-family="sans-serif" font-size="18" lengthAdjust="spacing" textLength="150" x="78.25" y="28.708">Hello sequences</text><line style="stroke:#A80036;stroke-width:1.0;stroke-dasharray:5.0,5.0;" x1="69" x2="69" y1="123.25" y2="244.6484"/><line style="stroke:#A80036;stroke-width:1.0;stroke-dasharray:5.0,5.0;" x1="229.5" x2="229.5" y1="123.25" y2="244.6484"/><text fill="#000000" font-family="sans-serif" font-size="14" lengthAdjust="spacing" textLength="122" x="5" y="119.9482">MyFunctionActor</text><ellipse cx="69" cy="49.9531" fill="#FEFECE" filter="url(#f18x82e3hvuno6)" rx="8" ry="8" style="stroke:#A80036;stroke-width:2.0;"/><path d="M69,57.9531 L69,84.9531 M56,65.9531 L82,65.9531 M69,84.9531 L56,99.9531 M69,84.9531 L82,99.9531 " fill="none" filter="url(#f18x82e3hvuno6)" style="stroke:#A80036;stroke-width:2.0;"/><text fill="#000000" font-family="sans-serif" font-size="14" lengthAdjust="spacing" textLength="122" x="5" y="256.6436">MyFunctionActor</text><ellipse cx="69" cy="269.9453" fill="#FEFECE" filter="url(#f18x82e3hvuno6)" rx="8" ry="8" style="stroke:#A80036;stroke-width:2.0;"/><path d="M69,277.9453 L69,304.9453 M56,285.9453 L82,285.9453 M69,304.9453 L56,319.9453 M69,304.9453 L82,319.9453 " fill="none" filter="url(#f18x82e3hvuno6)" style="stroke:#A80036;stroke-width:2.0;"/><text fill="#000000" font-family="sans-serif" font-size="14" lengthAdjust="spacing" textLength="137" x="158.5" y="119.9482">VerificationService</text><ellipse cx="230" cy="49.9531" fill="#FEFECE" filter="url(#f18x82e3hvuno6)" rx="8" ry="8" style="stroke:#A80036;stroke-width:2.0;"/><path d="M230,57.9531 L230,84.9531 M217,65.9531 L243,65.9531 M230,84.9531 L217,99.9531 M230,84.9531 L243,99.9531 " fill="none" filter="url(#f18x82e3hvuno6)" style="stroke:#A80036;stroke-width:2.0;"/><text fill="#000000" font-family="sans-serif" font-size="14" lengthAdjust="spacing" textLength="137" x="158.5" y="256.6436">VerificationService</text><ellipse cx="230" cy="269.9453" fill="#FEFECE" filter="url(#f18x82e3hvuno6)" rx="8" ry="8" style="stroke:#A80036;stroke-width:2.0;"/><path d="M230,277.9453 L230,304.9453 M217,285.9453 L243,285.9453 M230,304.9453 L217,319.9453 M230,304.9453 L243,319.9453 " fill="none" filter="url(#f18x82e3hvuno6)" style="stroke:#A80036;stroke-width:2.0;"/><rect fill="#EEEEEE" filter="url(#f18x82e3hvuno6)" height="3" style="stroke:#EEEEEE;stroke-width:1.0;" width="306.5" x="0" y="153.8164"/><line style="stroke:#000000;stroke-width:1.0;" x1="0" x2="306.5" y1="153.8164" y2="153.8164"/><line style="stroke:#000000;stroke-width:1.0;" x1="0" x2="306.5" y1="156.8164" y2="156.8164"/><rect fill="#EEEEEE" filter="url(#f18x82e3hvuno6)" height="23.1328" style="stroke:#000000;stroke-width:2.0;" width="173" x="66.75" y="143.25"/><text fill="#000000" font-family="sans-serif" font-size="13" font-weight="bold" lengthAdjust="spacing" textLength="159" x="72.75" y="159.3169">Claim Verification (?)</text><polygon fill="#A80036" points="218,193.5156,228,197.5156,218,201.5156,222,197.5156" style="stroke:#A80036;stroke-width:1.0;"/><line style="stroke:#A80036;stroke-width:1.0;" x1="69" x2="224" y1="197.5156" y2="197.5156"/><text fill="#000000" font-family="sans-serif" font-size="13" font-weight="bold" lengthAdjust="spacing" textLength="9" x="76" y="192.4497">1</text><text fill="#000000" font-family="sans-serif" font-size="13" lengthAdjust="spacing" textLength="112" x="89" y="192.4497">Verify a Claim (2)</text><polygon fill="#A80036" points="80,222.6484,70,226.6484,80,230.6484,76,226.6484" style="stroke:#A80036;stroke-width:1.0;"/><line style="stroke:#A80036;stroke-width:1.0;stroke-dasharray:2.0,2.0;" x1="74" x2="229" y1="226.6484" y2="226.6484"/><text fill="#000000" font-family="sans-serif" font-size="13" font-weight="bold" lengthAdjust="spacing" textLength="9" x="86" y="221.5825">2</text><text fill="#000000" font-family="sans-serif" font-size="13" lengthAdjust="spacing" textLength="124" x="99" y="221.5825">The Claim in Invalid</text><!--MD5=[1d5c117bfd9925136ae8b2d27b1abd52]
@startuml
title Hello sequences

actor MyFunctionActor
actor VerificationService

autonumber
== Claim Verification (?)==
MyFunctionActor -> VerificationService : Verify a Claim (2)
VerificationService - -> MyFunctionActor : The Claim in Invalid
@enduml

PlantUML version 1.2021.10beta2(Unknown compile time)
(GPL source distribution)
Java Runtime: Java(TM) SE Runtime Environment
JVM: Java HotSpot(TM) 64-Bit Server VM
Default Encoding: UTF-8
Language: en
Country: US
--></g></svg>